<?xml version="1.0"?>
<svg xmlns="http://www.w3.org/2000/svg" xmlns:xlink="http://www.w3.org/1999/xlink" version="1.1" id="Capa_1" x="0px" y="0px" viewBox="0 0 512.001 512.001" style="enable-background:new 0 0 512.001 512.001;" xml:space="preserve" width="512px" height="512px" class=""><g transform="matrix(0.904382 0 0 0.904382 24.4782 24.4782)"><g>
	<g>
		<path d="M470.614,356.148c-4.059,0-7.349,3.29-7.349,7.349V479.69c0,9.712-7.901,17.614-17.614,17.614h-379.3    c-9.712,0-17.614-7.902-17.614-17.614V363.547c0-4.059-3.29-7.349-7.349-7.349c-4.059,0-7.349,3.29-7.349,7.349v116.142    c0.001,17.817,14.495,32.312,32.312,32.312h379.3c17.816,0,32.311-14.495,32.311-32.312V363.497    C477.962,359.438,474.672,356.148,470.614,356.148z" data-original="#000000" class="active-path" data-old_color="#D2DCF7" fill="#F2F4F9"/>
	</g>
</g><g>
	<g>
		<path d="M488.517,128.543h-42.798c14.965-12.55,24.724-25.9,29.087-39.855c4.328-13.845,5.659-35.145-12.58-57.992    C439.89,2.715,414.866-1.271,397.798,0.295c-30.174,2.782-61.927,25.472-94.378,67.442c-5.303,6.86-10.592,14.192-15.781,21.867    c-4.976-4.447-11.536-7.158-18.72-7.158h-25.836c-7.183,0-13.743,2.71-18.72,7.158c-5.19-7.676-10.478-15.008-15.781-21.868    c-32.451-41.97-64.204-64.661-94.377-67.441c-17.062-1.577-42.093,2.419-64.428,30.4c-18.24,22.847-16.909,44.147-12.58,57.992    c4.363,13.955,14.122,27.305,29.086,39.855H23.484c-10.691,0-19.389,8.698-19.389,19.389v53.593    c0,10.69,8.697,19.388,19.389,19.388h10.555v91.19c0,4.059,3.29,7.349,7.349,7.349c4.059,0,7.349-3.29,7.349-7.349v-91.19H203.09    v137.224c0,1.027,0.109,2.031,0.318,3c0.908,4.198,3.71,7.728,7.757,9.583c0.498,0.228,1.004,0.417,1.514,0.583    c1.401,0.458,2.837,0.694,4.264,0.697c2.918,0.006,5.793-0.927,8.229-2.743c0.271-0.202,0.536-0.414,0.795-0.638l14.179-12.225    l30.842,0.173l15.266,12.618v-0.001c2.55,2.109,5.646,3.194,8.786,3.194c2.001,0,4.02-0.441,5.927-1.339    c4.901-2.307,7.945-7.106,7.945-12.523V220.913h154.353v91.139c0,4.059,3.29,7.349,7.349,7.349c4.059,0,7.349-3.29,7.349-7.349    v-91.139h10.555c10.691,0,19.389-8.698,19.389-19.388v-53.593C507.906,137.241,499.208,128.543,488.517,128.543z M203.09,206.216    H23.484c-2.586,0-4.691-2.104-4.691-4.691v-53.593c0-2.587,2.105-4.692,4.691-4.692h179.373h0.233V206.216z M177.317,128.543    c-10.815-4.093-32.48-12.689-43.664-18.149c-31.167-15.219-44.916-29.119-47.392-37.052c-0.466-1.495-1.335-4.276,3.693-10.575    c9.725-12.184,16.597-11.556,19.53-11.28c6.977,0.643,26.637,6.579,58.429,47.697c8.047,10.408,15.037,20.746,20.506,29.359    H177.317z M214.956,108.283v2.292v17.968h-2.226h-4.582h-2.43c-6.075-10.022-15.168-24.111-26.177-38.349    c-32.345-41.833-55.215-52.098-68.706-53.343c-11.912-1.089-22.495,4.38-32.367,16.747c-6.752,8.458-8.734,16.123-6.237,24.123    c6.099,19.541,37.06,37.133,54.973,45.88c3.594,1.755,7.163,3.406,10.627,4.942H91.052C69.397,114.458,56,99.579,51.224,84.302    c-3.265-10.444-4.174-26.633,10.039-44.437c18.248-22.861,38.132-26.177,51.592-24.933c25.949,2.391,54.245,23.183,84.099,61.797    c6.258,8.093,12.503,16.875,18.585,26.134C215.151,104.647,214.956,106.462,214.956,108.283z M229.653,110.575    c0-7.405,6.025-13.43,13.43-13.43h25.836c7.405,0,13.43,6.024,13.43,13.43v17.968h-52.696V110.575z M240.147,356.392    l14.992-12.926l15.848,13.099L240.147,356.392z M294.215,356.696l-30.267-25.016c-0.324-0.268-0.656-0.518-0.997-0.752    c-0.109-0.075-0.224-0.138-0.335-0.21c-0.234-0.152-0.468-0.306-0.709-0.441c-0.13-0.073-0.264-0.133-0.395-0.202    c-0.228-0.119-0.455-0.243-0.688-0.348c-0.142-0.065-0.288-0.116-0.432-0.175c-0.227-0.094-0.453-0.192-0.684-0.273    c-0.152-0.054-0.308-0.094-0.462-0.142c-0.226-0.071-0.451-0.146-0.68-0.205c-0.161-0.042-0.324-0.07-0.486-0.105    c-0.225-0.049-0.448-0.103-0.674-0.141c-0.169-0.028-0.339-0.043-0.508-0.065c-0.221-0.029-0.442-0.062-0.665-0.08    c-0.176-0.014-0.353-0.015-0.53-0.022c-0.192-0.008-0.383-0.024-0.575-0.024c-0.024,0-0.048,0.003-0.072,0.003    c-0.212,0.001-0.422,0.017-0.634,0.028c-0.187,0.01-0.374,0.013-0.56,0.03c-0.218,0.02-0.435,0.056-0.652,0.086    c-0.179,0.025-0.358,0.043-0.535,0.075c-0.225,0.041-0.447,0.097-0.671,0.149c-0.167,0.039-0.336,0.07-0.502,0.116    c-0.232,0.063-0.459,0.143-0.688,0.218c-0.155,0.051-0.311,0.094-0.464,0.15c-0.238,0.088-0.471,0.193-0.705,0.295    c-0.14,0.061-0.282,0.112-0.42,0.178c-0.243,0.115-0.48,0.248-0.717,0.379c-0.124,0.068-0.251,0.126-0.372,0.198    c-0.253,0.149-0.498,0.316-0.744,0.483c-0.1,0.068-0.205,0.127-0.303,0.198c-0.341,0.244-0.674,0.505-0.997,0.784l-28.302,24.401    h-0.003V143.24h2.226h71.976h2.226V356.696z M306.285,128.543h-2.43h-4.582h-2.226v-17.968v-2.292    c0-1.821-0.196-3.636-0.584-5.421c6.082-9.259,12.327-18.041,18.585-26.134c29.855-38.614,58.15-59.405,84.1-61.798    c13.46-1.243,33.343,2.074,51.591,24.934c14.213,17.804,13.304,33.993,10.039,44.437c-4.776,15.276-18.171,30.154-39.828,44.241    h-46.779c3.464-1.537,7.034-3.187,10.628-4.942c17.913-8.747,48.874-26.339,54.973-45.88c2.497-7.999,0.515-15.665-6.237-24.123    c-9.872-12.368-20.455-17.837-32.367-16.747c-13.49,1.245-36.361,11.509-68.706,53.343    C321.454,104.431,312.361,118.519,306.285,128.543z M334.531,128.543h-10.948c5.469-8.613,12.459-18.951,20.506-29.359    c31.792-41.118,51.452-47.054,58.429-47.697c2.93-0.276,9.804-0.905,19.53,11.28c5.028,6.299,4.16,9.081,3.693,10.575    c-2.476,7.933-16.226,21.833-47.391,37.052C366.942,115.964,345.027,124.597,334.531,128.543z M493.209,201.525    c0,2.586-2.105,4.691-4.691,4.691H308.912v-62.975h0.233h179.372c2.587,0,4.692,2.104,4.692,4.692V201.525z" data-original="#000000" class="active-path" data-old_color="#D2DCF7" fill="#F2F4F9"/>
	</g>
</g></g> </svg>
